#!OML:ASF I:\Random Stuff\random\construction\7_22_03\Session 2\subj1.ASF
:FULLY-SPECIFIED
:DEGREES
483
root -7.56654 17.813 6.929 -170.867 2.37533 -177.199
lowerback 4.01797 2.92814 0.0291454
upperback -2.5747 3.90709 -0.82889
thorax -4.85242 1.93471 -1.19142
lowerneck -22.4469 13.4425 11.5711
upperneck 31.8969 16.7469 -6.78185
head 16.9986 6.94658 -1.29646
rclavicle -4.42296e-015 1.59028e-015
rhumerus -38.7131 7.29926 -72.1364
rradius 87.7708
rwrist -34.9917
rhand -20.2271 10.3593
rfingers 7.12502
rthumb 6.12058 -19.5322
lclavicle -4.42296e-015 1.59028e-015
lhumerus -22.0038 -23.4683 78.2443
lradius 84.8385
lwrist 47.7077
lhand -19.441 68.1942
lfingers 7.12502
lthumb -173.121 81.9376
rfemur 2.94654 -7.90741 18.4342
rtibia 9.78911
rfoot -19.7235 -49.4117
rtoes 39.6196
lfemur -22.6205 1.93854 -16.0696
ltibia 21.8351
lfoot -8.9807 17.6421
ltoes -22.7329
484
root -7.70042 17.8486 6.78457 -171.201 1.43526 -177.391
lowerback 3.99148 3.14633 -0.18537
upperback -2.51685 4.18013 -0.97498
thorax -4.7769 2.07564 -1.24064
lowerneck -22.5536 13.0242 11.118
upperneck 32.341 16.2243 -6.63962
head 17.1154 6.66751 -1.30136
rclavicle -1.50082e-014 5.1684e-015
rhumerus -38.4443 7.43636 -72.4371
rradius 87.1169
rwrist -35.0763
rhand -20.0841 10.4444
rfingers 7.12502
rthumb 6.25858 -19.4431
lclavicle -1.50082e-014 5.1684e-015
lhumerus -21.7763 -23.7751 78.0749
lradius 84.1694
lwrist 47.9015
lhand -19.3931 67.7513
lfingers 7.12502
lthumb -173.074 82.382
rfemur 0.738997 -7.97103 17.3314
rtibia 15.7441
rfoot -13.89 -46.2694
rtoes 36.8919
lfemur -21.3058 2.64035 -17.0144
ltibia 20.5608
lfoot -8.92719 15.9808
ltoes -23.521
485
root -7.83143 17.88 6.64874 -171.612 0.508063 -177.742
lowerback 4.13995 3.34126 -0.473463
upperback -2.47572 4.41547 -1.17055
thorax -4.8211 2.19878 -1.30952
lowerneck -22.7171 12.6418 10.6067
upperneck 32.9934 15.7068 -6.32265
head 17.3301 6.3938 -1.21731
rclavicle -1.28713e-014 -2.06736e-014
rhumerus -38.1157 7.92 -72.8203
rradius 86.3582
rwrist -35.0484
rhand -20.4589 10.4784
rfingers 7.12502
rthumb 5.89675 -19.4196
lclavicle -1.28713e-014 -2.06736e-014
lhumerus -21.6965 -23.9894 77.9265
lradius 83.6987
lwrist 48.3962
lhand -19.4067 67.3956
lfingers 7.12502
lthumb -173.087 82.7373
rfemur -0.911725 -10.1182 16.0014
rtibia 20.6073
rfoot -7.51747 -39.2484
rtoes 29.6698
lfemur -19.814 2.22694 -17.8858
ltibia 19.2661
lfoot -9.14486 15.3901
ltoes -23.46
486
root -7.95769 17.9027 6.51968 -172.028 -0.57382 -178.09
lowerback 4.35428 3.49592 -0.720494
upperback -2.41304 4.53141 -1.3654
thorax -4.87958 2.23365 -1.39297
lowerneck -22.9592 12.3148 10.2978
upperneck 33.6599 15.2419 -6.153
head 17.6304 6.1411 -1.20947
rclavicle -3.43897e-014 9.54166e-015
rhumerus -37.6654 8.69632 -73.2512
rradius 85.5325
rwrist -35.0292
rhand -20.9878 10.6898
rfingers 7.12502
rthumb 5.38609 -19.2217
lclavicle -3.43897e-014 9.54166e-015
lhumerus -21.6899 -24.037 77.7583
lradius 83.3816
lwrist 48.678
lhand -19.4118 67.3359
lfingers 7.12502
lthumb -173.092 82.7968
rfemur -2.33559 -11.5847 14.8663
rtibia 24.8396
rfoot -4.21984 -31.5069
rtoes 19.5195
lfemur -18.361 1.16782 -18.6245
ltibia 18.1299
lfoot -9.59344 15.3465
ltoes -22.8343
487
root -8.07534 17.9149 6.39763 -172.493 -1.82873 -178.172
lowerback 4.64011 3.52901 -0.765086
upperback -2.29229 4.56795 -1.44281
thorax -4.91253 2.25226 -1.46587
lowerneck -23.2354 12.0033 10.1166
upperneck 34.2115 14.7981 -6.1129
head 17.9202 5.9024 -1.27079
rclavicle 2.2413e-014 -3.57812e-015
rhumerus -37.035 9.60803 -73.6119
rradius 84.674
rwrist -35.0685
rhand -21.4275 10.8494
rfingers 7.12502
rthumb 4.96155 -19.0725
lclavicle 2.2413e-014 -3.57812e-015
lhumerus -21.3643 -23.9215 77.4743
lradius 82.8945
lwrist 48.87
lhand -19.2869 67.2084
lfingers 7.12502
lthumb -172.972 82.9283
rfemur -3.52446 -12.4067 14.286
rtibia 28.4223
rfoot -3.94658 -24.8301
rtoes 11.4549
lfemur -17.097 0.0851045 -19.0569
ltibia 17.3966
lfoot -10.2099 15.2693
ltoes -21.1527
488
root -8.17867 17.9195 6.28254 -173.005 -3.25692 -177.832
lowerback 4.97748 3.48014 -0.499032
upperback -2.14108 4.5303 -1.33722
thorax -4.93421 2.22968 -1.51791
lowerneck -23.5114 11.7223 9.84148
upperneck 34.6701 14.4024 -5.96272
head 18.1451 5.69691 -1.25479
rclavicle 4.2689e-014 6.36111e-015
rhumerus -36.3017 10.5221 -73.855
rradius 83.841
rwrist -35.1408
rhand -21.6251 10.7916
rfingers 7.12502
rthumb 4.77076 -19.1347
lclavicle 4.2689e-014 6.36111e-015
lhumerus -20.6566 -23.6429 77.167
lradius 82.0585
lwrist 48.9534
lhand -19.0022 66.9104
lfingers 7.12502
lthumb -172.697 83.2356
rfemur -4.54438 -12.9813 14.4676
rtibia 31.4181
rfoot -4.46909 -19.7217
rtoes 6.55405
lfemur -16.1531 -0.663017 -19.0396
ltibia 17.1286
lfoot -10.8553 14.7216
ltoes -18.88
489
root -8.26846 17.9249 6.166 -173.518 -4.89147 -177.097
lowerback 5.22616 3.35243 0.0616909
upperback -1.98024 4.42125 -1.06819
thorax -4.88766 2.16706 -1.55131
lowerneck -23.6877 11.3949 9.5533
upperneck 34.901 13.9661 -5.84581
head 18.2214 5.48829 -1.26274
rclavicle 5.0044e-014 1.27222e-014
rhumerus -35.6109 11.3905 -74.0079
rradius 83.1625
rwrist -35.2298
rhand -21.8229 10.6111
rfingers 7.12502
rthumb 4.57979 -19.3194
lclavicle 5.0044e-014 1.27222e-014
lhumerus -21.0938 -23.1748 77.1342
lradius 82.3105
lwrist 48.7963
lhand -18.8436 66.621
lfingers 7.12502
lthumb -172.544 83.5304
rfemur -5.48215 -13.4738 15.3806
rtibia 33.9876
rfoot -4.94832 -16.044
rtoes 3.93362
lfemur -15.5142 -0.968368 -18.5872
ltibia 17.2253
lfoot -11.3659 13.5119
ltoes -18.3102
